<svg xmlns="http://www.w3.org/2000/svg" width="179" height="34" viewBox="0 0 179 34">
    <g fill="#FFF" fill-rule="nonzero">
        <path d="M20.558 24.511h6.326v6.326h-6.326zM3.163 7.116h6.326v6.326H3.163zM11.07 24.511h7.907v7.907H11.07zM1.581 15.023h7.907v7.907H1.581zM11.07 15.023h7.907v7.907H11.07zM11.07 5.534h7.907v7.907H11.07zM20.558 15.023h7.907v7.907h-7.907zM0 24.511h9.488V34H0zM20.558 3.953h9.488v9.488h-9.488z"/>
        <g>
            <path d="M39.917 26.803c-.24 0-.481-.04-.761-.08a1.56 1.56 0 0 1-.642-.282c-.12-.08-.24-.242-.36-.443-.12-.202-.2-.443-.2-.806V11.86h2.804V24.105c0 .12.08.241.2.322.04.04.12.08.201.12.08.04.28.081.48.081h8.175v2.256h-9.897v-.08zM52.977 26.843V11.86h3.163v15.024h-3.163zM71.287 24.323c-.117.276-.235.512-.314.747-.118.197-.235.394-.393.551a1.647 1.647 0 0 1-.55.354c-.235.079-.51.118-.824.118-.354 0-.629-.04-.864-.157a1.554 1.554 0 0 1-.59-.394c-.157-.157-.275-.354-.392-.55-.079-.197-.197-.433-.275-.669l-3.732-9.753c-.04-.079-.078-.197-.157-.315s-.157-.196-.196-.196c-.118 0-.197.078-.197.196-.039.118-.039.197-.039.236l.079 11.366h-2.75V13.075c0-.471.118-.825.314-1.1.197-.276.432-.433.707-.59a2.99 2.99 0 0 1 .786-.237c.275-.039.432-.039.55-.039.432 0 .785.04 1.06.157.275.08.51.236.707.394.197.157.354.393.472.59.117.236.235.472.314.708l3.77 9.753c.08.157.118.275.197.393.079.118.118.157.196.157.079 0 .118-.039.197-.157.078-.118.118-.236.196-.393l3.771-9.753c.157-.433.314-.748.51-.984.197-.236.393-.432.629-.55.236-.118.432-.236.707-.276.236-.039.471-.078.746-.078.668 0 1.257.157 1.69.472.431.314.667.786.667 1.455v12.86h-2.75l.08-11.366c0-.196-.04-.314-.08-.354-.078-.039-.117-.078-.157-.078-.078 0-.157.078-.196.196-.079.118-.118.236-.157.315l-3.732 9.753zM84.494 26.843c-.318 0-.635 0-.913-.04a1.367 1.367 0 0 1-.793-.405 1.812 1.812 0 0 1-.476-.85c-.04-.325-.08-.608-.08-.932v-10.65c0-.283.04-.607.12-.85.079-.284.198-.527.357-.689.238-.283.515-.445.833-.486.317-.04.634-.08.912-.08h9.44v2.267h-7.972c-.12 0-.238 0-.397.04-.12.041-.238.082-.357.203-.12.122-.198.243-.198.365-.04.121-.04.242-.04.364v3.037h8.727v2.187H84.93v3.523c0 .283.08.486.198.567.08.08.199.121.357.162.159.04.357.04.595.04h8.013v2.268h-9.6v-.04z"/>
        </g>
        <g>
            <path d="M98.206 24.576h8.195c.318 0 .597-.04.796-.203.199-.121.318-.283.398-.445.08-.162.159-.365.159-.527.04-.202.04-.324.04-.486 0-.162 0-.283-.04-.445-.04-.162-.08-.324-.2-.446-.079-.162-.238-.283-.437-.445a4.497 4.497 0 0 0-.756-.364l-5.808-1.863c-.04 0-.16-.04-.279-.081-.119-.04-.278-.122-.437-.203a3.621 3.621 0 0 1-.517-.324 1.384 1.384 0 0 1-.478-.485c-.159-.203-.318-.405-.398-.648l-.238-.73-.12-.728c0-.243-.04-.486-.04-.689 0-.445.04-.93.16-1.457.119-.486.358-.972.795-1.337.398-.364.796-.607 1.234-.688a6.61 6.61 0 0 1 1.193-.122h8.514v2.268h-7.56c-.198 0-.397 0-.596.04-.199.041-.398.122-.557.284-.199.162-.278.365-.318.607-.04.243-.04.405-.04.567 0 .324.08.648.239.932.159.283.557.567 1.114.77l5.41 1.74c.478.162.915.324 1.273.486.358.162.637.365.836.567.239.203.398.446.517.73.12.283.239.526.279.809.08.283.119.526.119.77.04.242.04.445.04.607 0 .486-.04.972-.12 1.458-.08.486-.278.93-.596 1.336-.358.486-.756.77-1.234.89-.437.122-.915.163-1.432.163h-9.07v-2.308h-.04zM118.012 26.843V14.122h-5.733V11.86h14.233v2.262h-5.733v12.762h-2.767zM137.843 11.11c.509 0 1.017.078 1.526.156a5.683 5.683 0 0 1 1.526.472c.508.197.938.512 1.33.905.39.354.665.786.9 1.258.234.472.39.984.508 1.534.117.511.196 1.062.235 1.613.039.55.039 1.061.039 1.533s0 .984-.04 1.534c-.038.55-.117 1.062-.234 1.613a7.832 7.832 0 0 1-.508 1.533c-.235.472-.51.905-.9 1.259-.392.393-.861.708-1.33.904a9.822 9.822 0 0 1-1.526.472c-.509.079-1.017.158-1.565.158-.509 0-.978.039-1.409.039-.43 0-.9 0-1.408-.04-.509 0-1.017-.078-1.526-.157a5.683 5.683 0 0 1-1.526-.472c-.508-.196-.939-.51-1.33-.904a4.215 4.215 0 0 1-.978-1.377 7.384 7.384 0 0 1-.509-1.573c-.117-.55-.156-1.062-.195-1.573-.04-.511-.04-.983-.04-1.416 0-.51 0-1.022.04-1.573.039-.55.078-1.062.195-1.573a6.734 6.734 0 0 1 .51-1.494c.234-.472.547-.905.938-1.298.391-.393.86-.708 1.33-.905a10.83 10.83 0 0 1 1.487-.472c.508-.078 1.017-.157 1.526-.157.508 0 .978-.04 1.408-.04.548.04 1.017.04 1.526.04zm-5.75 8.954c.04.423.12.808.2 1.116.08.308.2.578.28.809.12.192.24.384.36.538.2.27.44.501.76.655.32.154.6.27.92.346.32.077.68.116 1.04.154.36.039.76.039 1.12.039.36 0 .761 0 1.121-.039.36-.038.72-.077 1.04-.154.32-.077.64-.192.92-.346.28-.154.52-.385.76-.655.12-.154.24-.346.36-.538.12-.231.2-.501.28-.809.08-.308.16-.693.2-1.116.04-.424.08-.924.08-1.502 0-.616-.04-1.155-.08-1.578a7.152 7.152 0 0 0-.2-1.117c-.08-.308-.2-.577-.28-.77-.12-.192-.24-.385-.32-.5-.44-.5-1-.847-1.68-.963-.68-.115-1.4-.192-2.16-.192-.76 0-1.52.077-2.16.192-.68.116-1.201.462-1.641.963-.28.346-.52.847-.68 1.424-.16.616-.24 1.463-.24 2.58-.08.539-.04 1.04 0 1.463zM162.093 24.032c0 .753-.2 1.268-.638 1.585-.438.317-.957.476-1.555.476a3.47 3.47 0 0 1-1.275-.238c-.4-.158-.758-.475-1.117-.99l-6.259-9.792c-.12-.158-.2-.238-.239-.277-.04-.04-.08-.08-.12-.08-.04 0-.12.04-.199.08-.08.08-.12.158-.12.317v10.821h-2.71V13.052c0-.635.199-1.11.597-1.467.4-.357.957-.515 1.675-.515.678 0 1.156.119 1.515.317.359.238.638.515.837.832l6.3 9.87c.039.08.119.159.119.238.04.08.12.12.199.12.12 0 .2-.04.2-.12.04-.079.04-.158.04-.238V11.23h2.71v12.803h.04zM169.106 26.843c-.319 0-.637 0-.916-.04a1.374 1.374 0 0 1-.796-.405 1.81 1.81 0 0 1-.477-.85c-.04-.325-.08-.608-.08-.932v-10.65c0-.283.04-.607.12-.85.08-.284.199-.527.358-.689.239-.283.517-.445.836-.486.318-.04.636-.08.915-.08h9.472v2.267h-8c-.119 0-.238 0-.397.04-.12.041-.24.082-.359.203-.119.122-.199.243-.199.365-.04.121-.04.242-.04.364v3.037h8.757v2.187h-8.756v3.523c0 .283.08.486.199.567.08.08.199.121.358.162.159.04.358.04.597.04h8v2.268h-9.592v-.04z"/>
        </g>
        <g>
            <path d="M152.605 4.349c0 .87-.238 1.542-.752 2.016-.474.475-1.186.751-2.016.751-.87 0-1.542-.237-2.016-.75-.474-.475-.751-1.187-.751-2.017V0h.949v4.151c0 .712.158 1.226.474 1.621.316.395.751.554 1.344.554.593 0 1.028-.198 1.344-.554.317-.395.475-.91.475-1.62V0h.949v4.349zM154.999 7.116h-.813V0h.813v4.222l1.773-2.05H157.807l-1.958 2.09 2.29 2.854h-1.108L155 4.382zM158.968 2.484h.828v.486c.34-.411.753-.598 1.28-.598h.226v.785h-.188c-.49 0-.828.112-1.017.373-.225.262-.338.673-.338 1.233v2.353h-.829V2.484h.038zM162.95 7.907c-.513 0-.916-.129-1.208-.43-.293-.3-.44-.686-.44-1.2 0-.558.183-.987.586-1.33.403-.3.952-.473 1.647-.473h.769v-.429c0-.343-.073-.6-.256-.729-.183-.172-.44-.215-.806-.215-.256 0-.439.086-.622.215s-.256.343-.256.6h-.879c.037-.514.183-.9.476-1.158.293-.257.732-.386 1.318-.386.55 0 .988.172 1.318.472.33.3.512.73.512 1.244v1.845c0 .515 0 .901.037 1.245.037.343.037.557.11.643h-.806c-.036-.043-.073-.171-.073-.343 0-.129-.036-.258-.036-.472-.037.129-.11.214-.183.343-.293.386-.696.558-1.208.558zm1.515-2.372h-.83c-.514 0-.87.1-1.147.303-.237.202-.395.504-.395.959 0 .353.08.605.277.807a.987.987 0 0 0 .75.303c.436 0 .752-.151.99-.454.197-.303.316-.757.316-1.413l.04-.505zM166.837 0h.79v.79h-.79V0zm0 2.372h.791v4.744h-.791V2.372zM168.419 2.523h.94v.64a.682.682 0 0 1 .17-.188c.386-.377.941-.603 1.625-.603s1.197.15 1.539.49c.342.338.47.828.47 1.506v2.748h-.983V4.368c0-.49-.086-.829-.3-1.017-.213-.226-.512-.339-.982-.339-.513 0-.898.113-1.112.34-.213.225-.342.601-.342 1.129v2.635h-.94V2.523h-.085zM176.432 7.907c-.769 0-1.367-.255-1.837-.724-.47-.468-.642-1.15-.642-1.958 0-.894.214-1.576.642-2.087.427-.51 1.025-.766 1.795-.766.726 0 1.325.213 1.71.639.384.425.598 1.064.598 1.916v.34h-3.761c.042.596.128 1.065.341 1.363.214.34.599.51 1.112.51.342 0 .64-.085.854-.297.214-.213.342-.469.385-.81h.983c-.085.597-.299 1.065-.684 1.363-.384.298-.812.511-1.496.511zm.684-3.163c-.037-.497-.11-.903-.26-1.13-.184-.316-.481-.451-.926-.451-.37 0-.667.18-.89.542-.148.271-.259.633-.296 1.04h2.372z"/>
        </g>
    </g>
</svg>
